<mxfile host="65bd71144e">
    <diagram id="SGVjsjKshjUXTUl1Bq9M" name="ページ1">
        <mxGraphModel dx="753" dy="519" grid="1" gridSize="10" guides="1" tooltips="1" connect="1" arrows="1" fold="1" page="1" pageScale="1" pageWidth="827" pageHeight="1169" math="0" shadow="0">
            <root>
                <mxCell id="0"/>
                <mxCell id="1" parent="0"/>
                <mxCell id="4" value="" style="edgeStyle=none;html=1;" parent="1" source="2" target="3" edge="1">
                    <mxGeometry relative="1" as="geometry"/>
                </mxCell>
                <mxCell id="2" value="InputboxでボタンまたはEnter" style="strokeWidth=2;html=1;shape=mxgraph.flowchart.start_1;whiteSpace=wrap;" parent="1" vertex="1">
                    <mxGeometry x="80" y="40" width="200" height="80" as="geometry"/>
                </mxCell>
                <mxCell id="10" value="" style="edgeStyle=none;html=1;" parent="1" source="3" target="9" edge="1">
                    <mxGeometry relative="1" as="geometry"/>
                </mxCell>
                <mxCell id="3" value="InputBox内容取得" style="whiteSpace=wrap;html=1;strokeWidth=2;" parent="1" vertex="1">
                    <mxGeometry x="80" y="200" width="200" height="40" as="geometry"/>
                </mxCell>
                <mxCell id="9" value="無線モジュール&lt;br&gt;設定コマンド？" style="rhombus;whiteSpace=wrap;html=1;strokeWidth=2;" parent="1" vertex="1">
                    <mxGeometry x="120" y="280" width="120" height="120" as="geometry"/>
                </mxCell>
                <mxCell id="22" value="" style="edgeStyle=none;html=1;" edge="1" parent="1" source="11" target="21">
                    <mxGeometry relative="1" as="geometry"/>
                </mxCell>
                <mxCell id="11" value="アビオニクス&lt;br&gt;通信コマンド？" style="rhombus;whiteSpace=wrap;html=1;strokeWidth=2;" parent="1" vertex="1">
                    <mxGeometry x="320" y="280" width="120" height="120" as="geometry"/>
                </mxCell>
                <mxCell id="14" value="" style="endArrow=classic;html=1;exitX=1;exitY=0.5;exitDx=0;exitDy=0;entryX=0;entryY=0.5;entryDx=0;entryDy=0;" parent="1" source="9" target="11" edge="1">
                    <mxGeometry relative="1" as="geometry">
                        <mxPoint x="260" y="380" as="sourcePoint"/>
                        <mxPoint x="310" y="350" as="targetPoint"/>
                    </mxGeometry>
                </mxCell>
                <mxCell id="15" value="No" style="edgeLabel;resizable=0;html=1;align=center;verticalAlign=middle;rounded=0;" parent="14" connectable="0" vertex="1">
                    <mxGeometry relative="1" as="geometry"/>
                </mxCell>
                <mxCell id="16" value="" style="endArrow=classic;html=1;exitX=0.5;exitY=1;exitDx=0;exitDy=0;entryX=0.5;entryY=0;entryDx=0;entryDy=0;" parent="1" source="9" target="18" edge="1">
                    <mxGeometry relative="1" as="geometry">
                        <mxPoint x="250" y="350" as="sourcePoint"/>
                        <mxPoint x="130" y="460" as="targetPoint"/>
                    </mxGeometry>
                </mxCell>
                <mxCell id="17" value="Yes" style="edgeLabel;resizable=0;html=1;align=center;verticalAlign=middle;rounded=0;" parent="16" connectable="0" vertex="1">
                    <mxGeometry relative="1" as="geometry"/>
                </mxCell>
                <mxCell id="18" value="SendCommand" style="whiteSpace=wrap;html=1;strokeWidth=2;" parent="1" vertex="1">
                    <mxGeometry x="120" y="480" width="120" height="80" as="geometry"/>
                </mxCell>
                <mxCell id="21" value="SendBroadCast" style="whiteSpace=wrap;html=1;strokeWidth=2;" vertex="1" parent="1">
                    <mxGeometry x="320" y="480" width="120" height="80" as="geometry"/>
                </mxCell>
            </root>
        </mxGraphModel>
    </diagram>
</mxfile>